<!-- Generated by IcoMoon.io -->
<svg version="1.1" xmlns="http://www.w3.org/2000/svg" width="32" height="32" viewBox="0 0 32 32">
<title>close-circular-button-symbol</title>
<path d="M21.717 10.283c-0.394-0.394-1.032-0.394-1.425 0l-4.297 4.297-4.237-4.237c-0.391-0.391-1.024-0.391-1.414 0-0.391 0.391-0.391 1.024 0 1.414l4.237 4.237-4.266 4.266c-0.394 0.394-0.394 1.032 0 1.425s1.032 0.393 1.425 0l4.266-4.266 4.237 4.237c0.391 0.391 1.024 0.391 1.414 0 0.391-0.391 0.391-1.024 0-1.414l-4.237-4.237 4.297-4.297c0.394-0.393 0.394-1.032-0-1.425zM16 0c-8.837 0-16 7.163-16 16s7.163 16 16 16c8.836 0 16-7.164 16-16s-7.163-16-16-16zM16 30c-7.732 0-14-6.268-14-14s6.268-14 14-14c7.732 0 14 6.268 14 14s-6.268 14-14 14z"></path>
</svg>
