<!-- Generated by IcoMoon.io -->
<svg version="1.1" xmlns="http://www.w3.org/2000/svg" width="32" height="32" viewBox="0 0 32 32">
<title>comment</title>
<path d="M26.86 2.156h-21.751c-2.274 0-4.124 1.85-4.124 4.124v13.311c0 2.269 1.842 4.116 4.11 4.124v6.040l8.681-6.040h13.085c2.274 0 4.124-1.85 4.124-4.124v-13.311c0-2.275-1.85-4.124-4.124-4.124zM29.227 19.592c0 1.305-1.062 2.367-2.367 2.367h-13.636l-6.372 4.434v-4.434h-1.743c-1.305 0-2.367-1.062-2.367-2.367v-13.311c0-1.305 1.062-2.367 2.367-2.367h21.751c1.305 0 2.367 1.061 2.367 2.367z"></path>
<path d="M9.014 8.367h13.941v1.758h-13.941z"></path>
<path d="M9.014 12.117h13.941v1.758h-13.941z"></path>
<path d="M9.014 15.867h13.941v1.758h-13.941z"></path>
</svg>
