<!-- Generated by IcoMoon.io -->
<svg version="1.1" xmlns="http://www.w3.org/2000/svg" width="32" height="32" viewBox="0 0 32 32">
<title>credit-card</title>
<path d="M24.040-0.063h-16.074c-2.29 0-4.153 1.863-4.153 4.153v16.162c0 2.29 1.863 4.153 4.153 4.153h0.371v4.801c0 1.506 1.225 2.731 2.731 2.731h9.871c1.506 0 2.731-1.225 2.731-2.731v-4.801h0.371c2.29 0 4.153-1.863 4.153-4.153v-16.162c0-2.29-1.863-4.153-4.153-4.153zM10.212 29.207v-4.801h1.326v5.657h-0.471c-0.472 0-0.856-0.384-0.856-0.856zM13.413 30.063v-5.657h2.498v5.657zM21.794 29.207c0 0.472-0.384 0.856-0.856 0.856h-3.153v-5.657h4.008zM26.318 20.252c0 1.256-1.022 2.278-2.278 2.278h-16.074c-1.256 0-2.278-1.022-2.278-2.278v-16.162c0-1.256 1.022-2.278 2.278-2.278h16.074c1.256 0 2.278 1.022 2.278 2.278z"></path>
<path d="M22.909 2.576h-13.812c-0.518 0-0.938 0.42-0.938 0.938v4.497c0 0.518 0.42 0.938 0.938 0.938h13.812c0.518 0 0.938-0.42 0.938-0.938v-4.497c0-0.518-0.42-0.938-0.938-0.938zM21.971 7.073h-11.937v-2.622h11.937z"></path>
<path d="M12.387 11.769c0-0.528-0.429-0.957-0.959-0.957s-0.958 0.428-0.958 0.957c0 0.529 0.429 0.957 0.958 0.957s0.959-0.428 0.959-0.957z"></path>
<path d="M16.488 11.769c0-0.528-0.429-0.957-0.959-0.957s-0.959 0.428-0.959 0.957c0 0.529 0.429 0.957 0.959 0.957s0.959-0.428 0.959-0.957z"></path>
<path d="M20.589 11.769c0-0.528-0.429-0.957-0.959-0.957s-0.959 0.428-0.959 0.957c0 0.529 0.429 0.957 0.959 0.957s0.959-0.428 0.959-0.957z"></path>
<path d="M12.387 15.51c0-0.529-0.429-0.957-0.959-0.957s-0.958 0.428-0.958 0.957c0 0.528 0.429 0.957 0.958 0.957s0.959-0.428 0.959-0.957z"></path>
<path d="M16.488 15.51c0-0.529-0.429-0.957-0.959-0.957s-0.959 0.428-0.959 0.957c0 0.528 0.429 0.957 0.959 0.957s0.959-0.428 0.959-0.957z"></path>
<path d="M20.589 15.51c0-0.529-0.429-0.957-0.959-0.957s-0.959 0.428-0.959 0.957c0 0.528 0.429 0.957 0.959 0.957s0.959-0.428 0.959-0.957z"></path>
<path d="M12.387 19.251c0-0.528-0.429-0.957-0.959-0.957s-0.958 0.428-0.958 0.957c0 0.529 0.429 0.957 0.958 0.957s0.959-0.428 0.959-0.957z"></path>
<path d="M16.488 19.251c0-0.528-0.429-0.957-0.959-0.957s-0.959 0.428-0.959 0.957c0 0.529 0.429 0.957 0.959 0.957s0.959-0.428 0.959-0.957z"></path>
<path d="M20.589 19.251c0-0.528-0.429-0.957-0.959-0.957s-0.959 0.428-0.959 0.957c0 0.529 0.429 0.957 0.959 0.957s0.959-0.428 0.959-0.957z"></path>
</svg>
