<!-- Generated by IcoMoon.io -->
<svg version="1.1" xmlns="http://www.w3.org/2000/svg" width="32" height="32" viewBox="0 0 32 32">
<title>credit-card-1</title>
<path d="M28.571 4.571h-25.143c-1.894 0-3.429 1.535-3.429 3.429v16c0 1.894 1.535 3.429 3.429 3.429h25.143c1.894 0 3.429-1.535 3.429-3.429v-16c0-1.894-1.535-3.429-3.429-3.429zM29.714 24c0 0.631-0.512 1.143-1.143 1.143h-25.143c-0.631 0-1.143-0.512-1.143-1.143v-6.857h27.429v6.857zM29.714 14.857h-27.429v-2.286h27.429v2.286zM29.714 10.286h-27.429v-2.286c0-0.631 0.512-1.143 1.143-1.143h25.143c0.631 0 1.143 0.512 1.143 1.143v2.286z"></path>
<path d="M26.286 19.429h-4.571c-0.631 0-1.143 0.512-1.143 1.143s0.512 1.143 1.143 1.143h4.571c0.631 0 1.143-0.512 1.143-1.143s-0.512-1.143-1.143-1.143z"></path>
</svg>
