<!-- Generated by IcoMoon.io -->
<svg version="1.1" xmlns="http://www.w3.org/2000/svg" width="32" height="32" viewBox="0 0 32 32">
<title>credit-card-2</title>
<path d="M28.552 3.75h-25.104c-1.901 0-3.448 1.547-3.448 3.448v17.573c0 1.901 1.547 3.448 3.448 3.448h25.104c1.901 0 3.448-1.547 3.448-3.448v-17.573c0-1.901-1.547-3.448-3.448-3.448zM3.448 5.625h25.104c0.867 0 1.573 0.706 1.573 1.573v2.577h-28.25v-2.577c0-0.867 0.706-1.573 1.573-1.573zM28.552 26.344h-25.104c-0.867 0-1.573-0.706-1.573-1.573v-13.121h28.25v13.121c0 0.867-0.706 1.573-1.573 1.573z"></path>
<path d="M26.042 16.302h-8.033c-0.518 0-0.938 0.42-0.938 0.938s0.42 0.938 0.938 0.938h8.033c0.518 0 0.938-0.42 0.938-0.938s-0.42-0.938-0.938-0.938z"></path>
<path d="M26.042 21.323h-5.021c-0.518 0-0.938 0.42-0.938 0.938s0.42 0.938 0.938 0.938h5.021c0.518 0 0.938-0.42 0.938-0.938s-0.42-0.938-0.938-0.938z"></path>
<path d="M11.642 16.577c-0.176-0.176-0.414-0.275-0.663-0.275h-5.021c-0.518 0-0.938 0.42-0.938 0.938v5.021c0 0.518 0.42 0.938 0.938 0.938h7.029c0.518 0 0.938-0.42 0.938-0.938v-3.012c0-0.249-0.099-0.487-0.275-0.663zM12.050 21.323h-5.154v-3.146h3.695l1.459 1.459z"></path>
</svg>
