<!-- Generated by IcoMoon.io -->
<svg version="1.1" xmlns="http://www.w3.org/2000/svg" width="32" height="32" viewBox="0 0 32 32">
<title>delivery-man</title>
<path d="M30.302 9.873h-5.427c-0.936 0-1.698 0.762-1.698 1.699v6.246h-2.030c0.113-0.41 0.155-0.894 0.127-1.457v-0c-0.044-2.379-0.476-4.383-1.283-5.959-0.627-1.223-1.358-1.956-1.986-2.394 0.737-0.758 1.163-1.835 1.163-3.078 0-2.236-1.784-4.056-3.977-4.056s-3.977 1.819-3.977 4.056c0 0.259 0.21 0.469 0.469 0.469h0.319c-0.029 0.177-0.045 0.357-0.045 0.54 0 1.576 1.126 2.893 2.615 3.188-0.156 0.579-0.234 1.263-0.233 2.039l-1.169 1.006-2.845 0.23-3.281-1.085c-0.301-0.1-0.642-0.213-0.937 0-0.291 0.21-0.291 0.579-0.291 0.699v2.44c0 0.259 0.21 0.469 0.469 0.469h0.558l-0.856 2.958c-0.072 0.249 0.071 0.509 0.32 0.581s0.509-0.071 0.581-0.32l0.931-3.218h1.333c-1.657 5.054-0.712 8.428 0.742 11.843h-0.843l-3.51-3.924 0.742-2.564c0.072-0.249-0.071-0.509-0.32-0.581s-0.509 0.071-0.581 0.32l-0.71 2.452c-2.195-0.037-4.159 1.477-4.66 3.655-0.058 0.252 0.1 0.504 0.352 0.562l0.665 0.153c-0.17 1.766 0.993 3.432 2.766 3.84 0.269 0.062 0.541 0.093 0.811 0.093 0.665 0 1.319-0.186 1.897-0.549 0.678-0.425 1.184-1.050 1.457-1.789l0.525 0.121c0.156 0.036 0.305 0.055 0.453-0.025 0.138-0.074 0.23-0.208 0.264-0.36 0.033-0.153 0.058-0.309 0.076-0.467h9.804c0.314 1.949 1.972 3.419 3.953 3.419s3.639-1.469 3.953-3.419h0.358s0.071 0.001 0.087 0.001c0.134 0 0.328-0.015 0.487-0.177 0.080-0.081 0.173-0.226 0.166-0.456-0.013-0.44-0.079-0.866-0.192-1.27 0.373-2.267 0.014-3.647-0.518-4.728 0.337-0.221 0.56-0.601 0.56-1.033v-1.288h2.368c0.936 0 1.698-0.762 1.698-1.699v-5.484c0-0.937-0.762-1.699-1.698-1.699zM6.005 29.432c-0.6 0.376-1.31 0.496-1.999 0.337h-0c-1.269-0.292-2.115-1.455-2.053-2.713l5.085 1.17c-0.21 0.495-0.566 0.914-1.032 1.206zM8.351 27.565l-7.292-1.678c0.563-1.541 2.077-2.561 3.732-2.473l3.572 3.994c-0.003 0.053-0.007 0.105-0.012 0.157zM15.431 19.397c-0.136 0.359-0.136 0.801-0.136 1.414v1.769h-1.716v-2.427c0-2.744 1.497-3.233 2.169-3.313h4.596c-0.018 0.623-0.159 1.065-0.426 1.346-0.311 0.327-0.843 0.487-1.626 0.488l-1.683 0.002c-0.6 0-0.996 0.243-1.178 0.722zM15.295 23.517v1.119c-0.004 0-0.009 0-0.013 0h-3.33c0.037-0.347 0.146-0.616 0.323-0.802 0.264-0.276 0.636-0.318 0.834-0.318zM20.323 15.902h-4.263c-0.171-0.539-0.324-1.129-0.449-1.735l1.296-0.841c0.707-0.459 1.076-1.109 1.010-1.781-0.058-0.596-0.464-1.129-1.033-1.357-0.52-0.208-1.079-0.143-1.573 0.173 0.041-0.448 0.117-0.849 0.226-1.188 0.2-0.021 0.398-0.060 0.593-0.117 0.397-0.092 0.763-0.239 1.094-0.434 0.903 0.539 2.888 2.289 3.099 7.28zM12.186 4.462c0.221-1.498 1.484-2.649 3.005-2.649 1.676 0 3.039 1.399 3.039 3.118 0 1.398-0.671 2.525-1.752 3.021v-2.466c0-0.427-0.163-0.951-0.942-1.022-0.014-0.001-0.028-0.002-0.043-0.002zM12.895 5.94c0-0.185 0.021-0.366 0.063-0.54h2.514c0.029 0.003 0.050 0.006 0.065 0.010 0.002 0.017 0.005 0.042 0.005 0.077v2.742c-0.112 0.016-0.224 0.025-0.336 0.025-0.001 0-0.002 0-0.003 0-1.272-0.001-2.307-1.038-2.307-2.313zM12.287 13.185l1.11-0.090c0.099-0.008 0.193-0.047 0.268-0.112l2.004-1.724c0.194-0.167 0.401-0.253 0.602-0.253 0.090 0 0.178 0.017 0.264 0.051 0.248 0.099 0.424 0.326 0.448 0.578 0.031 0.317-0.178 0.638-0.587 0.904l-2.233 1.449h-1.876v-0.804zM10.306 13.345l1.043-0.084v0.728h-1.213c-0.157 0-0.195-0.131-0.2-0.24-0.003-0.062 0.003-0.374 0.369-0.404zM9.196 13.021c-0.141 0.232-0.207 0.502-0.196 0.766 0.003 0.068 0.011 0.134 0.024 0.198 0 0.001-0.001 0.003-0.001 0.004h-2.271v-1.78l2.446 0.809c-0.001 0.001-0.001 0.002-0.002 0.004zM10.139 14.926h4.163c0.091 0 0.179-0.026 0.255-0.076l0.212-0.138c0.102 0.451 0.218 0.89 0.345 1.305-0.956 0.282-2.473 1.194-2.473 4.135v2.474c-0.329 0.066-0.718 0.22-1.043 0.56-0.343 0.359-0.539 0.845-0.586 1.449h-0.946c-0.953-2.746-1.315-5.668 0.074-9.71zM10.912 26.767c-0.173-0.398-0.34-0.795-0.498-1.194h4.867c0.631 0 0.951-0.287 0.951-0.854v-3.441h3.7c0.259 0 0.469-0.21 0.469-0.469s-0.21-0.469-0.469-0.469h-3.697c0.006-0.266 0.023-0.484 0.072-0.613 0.024-0.063 0.044-0.117 0.302-0.117l1.683-0.002c1.054-0.001 1.808-0.256 2.305-0.78 0.023-0.024 0.045-0.050 0.067-0.075h6.333v1.288c0 0.161-0.136 0.297-0.297 0.297h-4.667c-0.259 0-0.469 0.21-0.469 0.469s0.21 0.469 0.469 0.469h4.391c0.37 0.688 0.704 1.543 0.684 2.895-0.927-1.288-2.429-2.116-4.133-2.116-1.368 0-2.652 0.537-3.616 1.511-0.855 0.865-1.368 1.987-1.474 3.2zM23.034 30.187c-1.465 0-2.701-1.056-3-2.481h6c-0.299 1.425-1.535 2.481-3 2.481zM26.567 26.769h-7.739c0.23-2.12 2.002-3.774 4.148-3.774 1.883 0 3.465 1.242 3.989 2.98 0.002 0.006 0.003 0.011 0.005 0.016 0.074 0.249 0.126 0.509 0.155 0.777zM31.063 17.057c0 0.42-0.341 0.762-0.761 0.762h-6.187v-2.421h6.948zM31.063 14.46h-6.948v-0.997h6.948zM31.063 12.526h-6.948v-0.953c0-0.42 0.341-0.762 0.761-0.762h5.427c0.419 0 0.761 0.342 0.761 0.762z"></path>
</svg>
