<!-- Generated by IcoMoon.io -->
<svg version="1.1" xmlns="http://www.w3.org/2000/svg" width="32" height="32" viewBox="0 0 32 32">
<title>film-roll</title>
<path d="M12.111 21.032h0v-0z"></path>
<path d="M12.111 10.968v10.063l8.715-5.032-8.715-5.032zM13.986 14.216l3.090 1.784-3.090 1.784v-3.568z"></path>
<path d="M30.125 3.626v1.711h-2.6v-1.711h-1.875v4.058h-19.3v-4.058h-1.875v1.711h-2.6v-1.711h-1.875v24.749h1.875v-2.423h2.6v2.423h1.875v-4.058h19.3v4.058h1.875v-2.423h2.6v2.423h1.875v-24.749h-1.875zM4.475 24.076h-2.6v-2.81h2.6v2.81zM4.475 19.391h-2.6v-2.81h2.6v2.81zM4.475 14.706h-2.6v-2.81h2.6v2.81zM4.475 10.021h-2.6v-2.81h2.6v2.81zM25.65 22.441h-19.3v-12.882h19.3v12.882zM30.125 24.076h-2.6v-2.81h2.6v2.81zM30.125 19.391h-2.6v-2.81h2.6v2.81zM30.125 14.706h-2.6v-2.81h2.6v2.81zM30.125 10.021h-2.6v-2.81h2.6v2.81z"></path>
</svg>
