<!-- Generated by IcoMoon.io -->
<svg version="1.1" xmlns="http://www.w3.org/2000/svg" width="32" height="32" viewBox="0 0 32 32">
<title>headphone</title>
<path d="M2.134 21.7c-1.178 0-2.134-0.955-2.134-2.133v-4.133c0-1.178 0.955-2.133 2.133-2.133 0.221 0 0.401 0.179 0.401 0.4-0.001 1.417-0.001 6.183 0 7.599 0 0.221-0.179 0.4-0.401 0.4zM26.355 9.597c-0.491-5.282-4.948-9.43-10.355-9.43s-9.864 4.148-10.355 9.43c-0.028 0.306 0.214 0.57 0.522 0.57 0.315 0 0.518-0.224 0.541-0.473 0.442-4.739 4.44-8.46 9.293-8.46s8.851 3.721 9.293 8.46c0.023 0.251 0.227 0.473 0.541 0.473 0.307-0 0.55-0.264 0.522-0.57zM29.867 13.3c-0.222 0-0.401 0.18-0.401 0.4 0.001 1.417 0.001 6.182 0 7.599-0 0.221 0.179 0.4 0.401 0.4 1.177 0 2.133-0.953 2.133-2.133v-4.133c-0-1.178-0.955-2.133-2.133-2.133zM20.779 17.994c0.082-0.283-0.080-0.579-0.363-0.661s-0.579 0.080-0.661 0.363c-0.484 1.658-2.028 2.816-3.755 2.816s-3.271-1.158-3.755-2.816c-0.082-0.283-0.379-0.445-0.661-0.363s-0.445 0.379-0.363 0.661c0.615 2.11 2.581 3.584 4.779 3.584s4.163-1.474 4.779-3.584zM12.622 12.789c-0.582 0-1.055 0.474-1.055 1.056s0.473 1.055 1.055 1.055 1.056-0.473 1.056-1.055-0.474-1.056-1.056-1.056zM19.378 12.822c-0.564 0-1.023 0.459-1.023 1.023s0.459 1.022 1.023 1.022c0.563 0 1.022-0.459 1.022-1.022s-0.459-1.023-1.022-1.023zM6.8 11.233h-1.067c-1.177 0-2.133 0.957-2.133 2.133v8.267c0 1.176 0.957 2.133 2.133 2.133h1.067c1.177 0 2.133-0.957 2.133-2.133v-8.267c0-1.176-0.957-2.133-2.133-2.133zM26.267 11.233h-1.067c-1.177 0-2.133 0.957-2.133 2.133v8.267c0 1.176 0.957 2.133 2.133 2.133h1.067c1.177 0 2.133-0.957 2.133-2.133v-8.267c0-1.176-0.957-2.133-2.133-2.133zM29.919 22.766c-0.288 0.006-0.519 0.24-0.519 0.528v0.406c0 2.946-2.388 5.333-5.333 5.333h-0.997c-0.241-0.993-1.137-1.733-2.203-1.733-1.304 0-2.354 1.106-2.261 2.43 0.078 1.104 0.964 2.003 2.066 2.095 1.151 0.097 2.143-0.672 2.398-1.725h0.997c3.535 0 6.4-2.865 6.4-6.4v-0.406c0-0.282-0.225-0.535-0.548-0.528z"></path>
</svg>
