<!-- Generated by IcoMoon.io -->
<svg version="1.1" xmlns="http://www.w3.org/2000/svg" width="32" height="32" viewBox="0 0 32 32">
<title>helmet-1</title>
<path d="M27.785 6.087c-2.718-2.718-6.332-4.215-10.176-4.215-2.954 0-5.798 0.892-8.222 2.58s-4.249 4.045-5.274 6.815l-4.112 11.107 0.933 7.754h23.79l0.221-0.131c2.11-1.252 3.877-3.035 5.111-5.155 1.272-2.186 1.945-4.685 1.945-7.228v-1.35c0-3.844-1.497-7.458-4.215-10.177zM5.679 12.436h6.58c1.551 0 2.813 1.262 2.813 2.813s-1.262 2.813-2.813 2.813h-8.663zM24.203 28.252h-21.607l-0.226-1.879h24.174c-0.702 0.715-1.488 1.348-2.342 1.879zM30.124 17.613c0 2.212-0.584 4.385-1.69 6.285-0.119 0.204-0.244 0.404-0.373 0.6h-25.916l-0.228-1.898 0.985-2.662h9.357c2.585 0 4.689-2.103 4.689-4.689s-2.103-4.689-4.689-4.689h-5.793c0.931-1.824 2.291-3.386 3.991-4.569 2.109-1.468 4.582-2.244 7.151-2.244 6.901 0 12.516 5.615 12.516 12.516v1.35z"></path>
</svg>
