<!-- Generated by IcoMoon.io -->
<svg version="1.1" xmlns="http://www.w3.org/2000/svg" width="32" height="32" viewBox="0 0 32 32">
<title>lecture</title>
<path d="M29.438 16.426c1.434-0.127 2.563-1.334 2.563-2.801v-8.75c0-1.551-1.262-2.813-2.813-2.813h-9.313c-1.551 0-2.813 1.262-2.813 2.813v3.688h-11.688c-1.551 0-2.813 1.262-2.813 2.813v11.25c0 0.329 0.057 0.644 0.161 0.938h-1.036c-0.93 0-1.688 0.757-1.688 1.688 0 2.585 2.103 4.688 4.688 4.688h22.625c2.585 0 4.688-2.103 4.688-4.688 0-0.93-0.757-1.688-1.688-1.688h-1.036c0.104-0.293 0.161-0.609 0.161-0.938zM18.938 4.875c0-0.517 0.421-0.938 0.938-0.938h9.313c0.517 0 0.938 0.421 0.938 0.938v8.75c0 0.517-0.421 0.938-0.938 0.938h-8.688c-0.176 0-0.348 0.049-0.497 0.143l-1.89 1.181 0.785-2.617c0.026-0.087 0.040-0.178 0.040-0.269zM27.313 28.063h-22.625c-1.488 0-2.709-1.161-2.806-2.625h28.238c-0.097 1.464-1.319 2.625-2.806 2.625zM8.938 16.5c0-0.586 0.477-1.063 1.063-1.063s1.063 0.477 1.063 1.063-0.477 1.063-1.063 1.063-1.063-0.477-1.063-1.063zM8.438 20.5c0-0.566 0.73-1.063 1.563-1.063 0.446 0 0.876 0.139 1.18 0.382 0.143 0.114 0.383 0.355 0.383 0.68v3.063h-3.125zM13.438 23.563v-3.063c0-0.811-0.396-1.592-1.086-2.145-0.015-0.012-0.032-0.024-0.047-0.036 0.396-0.501 0.634-1.133 0.634-1.819 0-1.62-1.318-2.938-2.938-2.938s-2.938 1.318-2.938 2.938c0 0.687 0.238 1.32 0.635 1.821-0.697 0.538-1.135 1.316-1.135 2.179v3.063h-1.188c-0.517 0-0.938-0.421-0.938-0.938v-11.25c0-0.517 0.421-0.938 0.938-0.938h11.687v2.425l-0.746 2.485c-0.226 0.755 0.032 1.551 0.658 2.029 0.337 0.258 0.736 0.388 1.136 0.388 0.343 0 0.687-0.096 0.995-0.288l1.662-1.039h6.794v6.188c0 0.517-0.421 0.938-0.938 0.938z"></path>
<path d="M25.5 10.563h-2c-0.518 0-0.938 0.42-0.938 0.938s0.42 0.938 0.938 0.938h2c0.518 0 0.938-0.42 0.938-0.938s-0.42-0.938-0.938-0.938z"></path>
<path d="M22 7.938h5c0.518 0 0.938-0.42 0.938-0.938s-0.42-0.938-0.938-0.938h-5c-0.518 0-0.938 0.42-0.938 0.938s0.42 0.938 0.938 0.938z"></path>
</svg>
