<!-- Generated by IcoMoon.io -->
<svg version="1.1" xmlns="http://www.w3.org/2000/svg" width="32" height="32" viewBox="0 0 32 32">
<title>left-arrow</title>
<path d="M27 15h-19.95l7.639-7.276c0.4-0.381 0.415-1.014 0.034-1.414s-1.014-0.415-1.414-0.035l-8.724 8.31c-0.378 0.378-0.586 0.88-0.586 1.415s0.209 1.037 0.603 1.431l8.707 8.293c0.194 0.184 0.441 0.276 0.69 0.276 0.264 0 0.528-0.104 0.725-0.311 0.381-0.4 0.366-1.032-0.034-1.413l-7.671-7.276h19.981c0.552 0 1-0.448 1-1s-0.448-1-1-1z"></path>
</svg>
