<!-- Generated by IcoMoon.io -->
<svg version="1.1" xmlns="http://www.w3.org/2000/svg" width="40" height="32" viewBox="0 0 40 32">
<title>logo-delino-sign</title>
<path fill="#ef4123" d="M27.921 10.693c-0.158-3.446-2.416-8.713-4.475-10.416-0.713-0.594-2.812-0.119-2.891 1.505-0.040 0.436 0.158 0.832 0.475 1.069 3.168 2.416 5.386 9.98 3.366 14.772-1.069 2.574-3.050 4.634-5.822 4.475-1.782-0.079-3.089-1.584-2.653-3.485 0.436-1.98 3.366-5.347 6.218-5.703 0.832-0.119 1.624-0.95 1.861-1.743 0.277-0.832-0.238-1.624-1.109-1.545-4.673 0.554-8.079 4.99-9.149 8.792-0.911 3.327 0.396 6.178 3.168 6.614 4.277 0.515 6.812-1.861 8.871-4.99 1.743-2.653 2.297-6.020 2.139-9.347z"></path>
<path fill="#ef4123" d="M16 32c-2.574 0-5.109-0.673-7.208-1.941-2.337-1.426-3.921-3.446-4.634-5.861-0.158-0.554-0.040-1.148 0.277-1.584 0.238-0.317 0.594-0.515 0.95-0.515h0.040c0.277 0 1.069 0 1.386 1.069 0.040 0.079 1.030 6.416 10.139 6.455 4.713 0 8.713-1.545 17.98-6.099 0.079-0.040 0.356-0.198 0.673-0.198 0.436 0 0.713 0.079 0.911 0.515 0.277 0.634-0.119 1.267-0.752 1.545-0.317 0.119-1.861 0.871-2.653 1.267-4.277 2.099-10.772 5.347-17.109 5.347z"></path>
<path fill="#ef4123" d="M0.158 22.337c-0.752 1.386 1.347 2.455 1.822 1.228 1.347-3.644 3.842-4 6.376-4.356 0.911-0.119 0.713-2.059-0.515-1.861-2.535 0.356-5.545 0.99-7.683 4.99z"></path>
<path fill="#ef4123" d="M39.604 22.733c0-0.634-0.515-1.148-1.148-1.148s-1.148 0.515-1.148 1.148c0 0.634 0.515 1.148 1.148 1.148s1.148-0.515 1.148-1.148z"></path>
</svg>
