<!-- Generated by IcoMoon.io -->
<svg version="1.1" xmlns="http://www.w3.org/2000/svg" width="32" height="32" viewBox="0 0 32 32">
<title>online-payment</title>
<path d="M20.692 0h-20.688v13.25h20.688zM18.817 11.375h-16.938v-5.75h16.938zM18.817 3.75h-16.938v-1.875h16.938z"></path>
<path d="M14.926 17c-1.916 0-3.567 1.156-4.293 2.807l-3.309-3.309c-0.885-0.885-2.062-1.373-3.315-1.373s-2.429 0.488-3.315 1.373l-0.663 0.663 8.618 8.618c1.845 1.845 4.667 1.72 7.396 1.599 2.43-0.108 4.726-0.209 5.987 1.052l3.471 3.57 6.491-6.866-6.212-6.212c-1.239-1.239-2.887-1.922-4.64-1.922zM29.344 25.134l-3.84 4.214-1.993-2.092 3.977-3.977zM26.163 21.953l-4.184 4.184c-1.173-0.557-2.549-0.693-3.973-0.693-0.676 0-1.362 0.030-2.043 0.061-2.43 0.108-4.726 0.209-5.987-1.052l-7.179-7.179c0.374-0.179 0.786-0.273 1.213-0.273 0.751 0 1.457 0.293 1.989 0.824l4.256 4.241v0.56h6.977c1.063 0 2.062 0.414 2.813 1.165l1.326-1.326c-1.105-1.106-2.575-1.714-4.139-1.714h-4.957c0.387-1.091 1.429-1.875 2.651-1.875h6.217c1.252 0 2.429 0.488 3.315 1.373z"></path>
</svg>
