<!-- Generated by IcoMoon.io -->
<svg version="1.1" xmlns="http://www.w3.org/2000/svg" width="32" height="32" viewBox="0 0 32 32">
<title>paper-plane</title>
<path d="M11.667 23.483v6.184c0 0.432 0.277 0.815 0.688 0.951 0.103 0.033 0.208 0.049 0.312 0.049 0.312 0 0.613-0.147 0.805-0.408l3.617-4.923z"></path>
<path d="M31.58 0.185c-0.307-0.217-0.709-0.247-1.043-0.072l-30 15.667c-0.355 0.185-0.564 0.564-0.535 0.963 0.031 0.4 0.296 0.741 0.673 0.871l8.34 2.851 17.761-15.187-13.744 16.559 13.977 4.777c0.104 0.035 0.213 0.053 0.323 0.053 0.181 0 0.361-0.049 0.52-0.145 0.253-0.155 0.425-0.415 0.469-0.707l3.667-24.667c0.055-0.373-0.103-0.744-0.409-0.963z"></path>
</svg>
