<!-- Generated by IcoMoon.io -->
<svg version="1.1" xmlns="http://www.w3.org/2000/svg" width="32" height="32" viewBox="0 0 32 32">
<title>pie</title>
<path d="M32 18.925c0-1.468-0.824-2.801-2.102-3.478-0.485-3.207-2.068-6.151-4.495-8.338-2.583-2.328-5.923-3.61-9.404-3.61s-6.82 1.282-9.403 3.61c-2.427 2.187-4.010 5.131-4.495 8.338-1.277 0.677-2.102 2.009-2.102 3.478 0 1.922 1.381 3.527 3.202 3.878l0.786 3.104c0.387 1.527 1.757 2.593 3.332 2.593h17.359c1.575 0 2.945-1.066 3.332-2.593l0.786-3.104c1.822-0.351 3.202-1.956 3.202-3.878zM24.679 26.625h-17.359c-0.716 0-1.339-0.485-1.515-1.179l-0.696-2.747c0.729-0.225 1.37-0.654 1.852-1.223 0.725 0.854 1.807 1.398 3.013 1.398s2.287-0.543 3.013-1.398c0.725 0.855 1.807 1.398 3.012 1.398s2.287-0.543 3.012-1.398c0.725 0.855 1.807 1.398 3.012 1.398s2.287-0.543 3.012-1.398c0.482 0.568 1.123 0.998 1.852 1.223l-0.696 2.747c-0.176 0.694-0.799 1.179-1.515 1.179zM28.050 21c-1.144 0-2.075-0.931-2.075-2.075 0-0.518-0.42-0.938-0.938-0.938s-0.938 0.42-0.938 0.938c0 1.144-0.931 2.075-2.075 2.075s-2.075-0.931-2.075-2.075c0-0.518-0.42-0.938-0.938-0.938s-0.938 0.42-0.938 0.938c0 1.144-0.931 2.075-2.075 2.075s-2.075-0.931-2.075-2.075c0-0.518-0.42-0.938-0.938-0.938s-0.938 0.42-0.938 0.938c0 1.144-0.931 2.075-2.075 2.075s-2.075-0.931-2.075-2.075c0-0.518-0.42-0.938-0.938-0.938s-0.938 0.42-0.938 0.938c0 1.144-0.931 2.075-2.075 2.075s-2.075-0.931-2.075-2.075c0-0.874 0.561-1.657 1.396-1.948 0.341-0.119 0.583-0.423 0.623-0.781 0.429-3.84 2.607-7.092 5.69-9l1.16 3.188c0.139 0.381 0.498 0.617 0.881 0.617 0.106 0 0.215-0.018 0.321-0.057 0.487-0.177 0.737-0.715 0.56-1.202l-1.242-3.413c1.185-0.499 2.463-0.816 3.799-0.917v4.026c0 0.518 0.42 0.938 0.938 0.938s0.938-0.42 0.938-0.938v-4.026c1.335 0.102 2.614 0.418 3.799 0.917l-1.242 3.413c-0.177 0.487 0.074 1.025 0.56 1.202 0.106 0.039 0.214 0.057 0.321 0.057 0.383 0 0.742-0.236 0.881-0.617l1.16-3.188c3.082 1.908 5.261 5.16 5.69 9 0.040 0.358 0.282 0.662 0.623 0.781 0.835 0.291 1.396 1.074 1.396 1.948 0 1.144-0.931 2.075-2.075 2.075z"></path>
</svg>
