<!-- Generated by IcoMoon.io -->
<svg version="1.1" xmlns="http://www.w3.org/2000/svg" width="32" height="32" viewBox="0 0 32 32">
<title>pie</title>
<path d="M30.757 12.79c-0.643-0.47-1.46-0.76-2.338-0.838-0.886-0.956-2.005-1.847-3.266-2.604 0.040-0.291-0.1-0.57-0.358-0.712-0.198-0.109-0.401-0.216-0.603-0.317-0.232-0.116-0.513-0.023-0.629 0.209-0.109 0.217-0.043 0.504 0.226 0.638-2.64 0.651-5.364 2.014-7.685 3.473-0.862-0.016-1.738 0.167-2.503 0.593-0.302 0.168-0.659 0.163-0.93-0.015-0.268-0.176-0.565-0.323-0.88-0.438 2.576-1.964 5.482-3.683 8.094-4.776 0.245-0.103 0.525-0.118 0.789-0.044 0.365 0.103 0.731 0.219 1.089 0.345 0.244 0.086 0.512-0.042 0.598-0.286s-0.042-0.512-0.286-0.598c-0.377-0.133-0.763-0.255-1.147-0.363-0.479-0.135-0.963-0.104-1.454 0.103-1.143-0.228-2.31-0.344-3.473-0.344s-2.33 0.117-3.473 0.344c-0.502-0.211-0.986-0.234-1.456-0.102-1.35 0.38-2.651 0.911-3.866 1.58-0.258 0.142-0.398 0.421-0.358 0.712-1.261 0.757-2.379 1.648-3.266 2.604-0.878 0.078-1.696 0.368-2.338 0.838-0.802 0.587-1.243 1.38-1.243 2.235s0.442 1.649 1.243 2.235c0.64 0.468 1.454 0.758 2.329 0.837l1.232 4.002c0.449 1.459 1.649 2.593 3.13 2.959 0.252 0.062 0.505-0.092 0.568-0.343s-0.091-0.505-0.342-0.568c-1.164-0.288-2.106-1.179-2.459-2.325l-1.147-3.726c0.582-0.054 1.142-0.201 1.641-0.436 0.314-0.148 0.68-0.11 0.954 0.098 1.443 1.097 3.693 1.185 5.27 0.306 0.302-0.169 0.659-0.163 0.93 0.015 1.519 0.996 3.787 0.994 5.303-0 0.271-0.178 0.628-0.184 0.93-0.015 1.577 0.879 3.827 0.791 5.27-0.306 0.274-0.208 0.639-0.246 0.954-0.098 0.499 0.235 1.059 0.382 1.641 0.436l-1.147 3.726c-0.447 1.451-1.767 2.425-3.285 2.425h-12.725c-0.259 0-0.469 0.21-0.469 0.469s0.21 0.469 0.469 0.469h12.725c1.932 0 3.612-1.241 4.181-3.087l1.232-4.002c0.875-0.079 1.689-0.369 2.329-0.837 0.802-0.587 1.243-1.38 1.243-2.235s-0.442-1.649-1.243-2.235zM24.392 9.988c1.025 0.588 1.956 1.27 2.741 2.003-0.777 0.118-1.491 0.406-2.062 0.841-0.274 0.208-0.64 0.246-0.954 0.098-0.796-0.374-1.76-0.534-2.732-0.425-0.419-0.332-0.855-0.664-1.303-0.99 1.354-0.639 2.831-1.202 4.31-1.526zM19.13 11.985c0.368 0.262 0.729 0.527 1.080 0.794-0.315 0.116-0.611 0.262-0.88 0.438-0.271 0.178-0.628 0.184-0.93 0.015-0.27-0.15-0.559-0.273-0.863-0.367 0.496-0.291 1.030-0.589 1.593-0.88zM17.926 7.863c-0.636 0.311-1.281 0.651-1.927 1.017-0.651-0.368-1.294-0.707-1.925-1.016 1.24-0.144 2.513-0.155 3.852-0.001zM11.325 7.959c0.265-0.074 0.546-0.059 0.791 0.043 0.946 0.396 1.933 0.876 2.941 1.427-0.764 0.459-1.524 0.95-2.268 1.465-1.616-0.797-3.152-1.377-4.578-1.728 0.991-0.499 2.036-0.904 3.113-1.207zM7.608 9.988c1.333 0.292 2.779 0.804 4.31 1.526-0.443 0.323-0.878 0.654-1.302 0.991-0.972-0.109-1.935 0.051-2.732 0.425-0.314 0.148-0.68 0.11-0.954-0.098-0.571-0.434-1.284-0.722-2.062-0.841 0.785-0.733 1.715-1.414 2.74-2.002zM26.205 16.812c-0.631-0.297-1.367-0.22-1.92 0.201-1.089 0.828-2.934 0.965-4.246 0.234-0.608-0.339-1.337-0.32-1.901 0.050-1.205 0.79-3.068 0.791-4.275 0-0.561-0.368-1.289-0.391-1.901-0.050-1.313 0.732-3.157 0.595-4.246-0.234-0.553-0.421-1.289-0.497-1.92-0.201-2.081 0.978-4.858-0.084-4.858-1.787 0-1.19 1.4-2.158 3.121-2.158 0.87 0 1.71 0.259 2.303 0.71 0.553 0.421 1.289 0.497 1.92 0.201 1.194-0.561 2.798-0.483 3.874 0.223 0.564 0.37 1.292 0.389 1.901 0.050 1.137-0.634 2.742-0.638 3.887 0 0.608 0.339 1.336 0.32 1.901-0.050 1.077-0.706 2.681-0.784 3.874-0.223 0.631 0.297 1.367 0.22 1.92-0.201 0.593-0.451 1.433-0.71 2.303-0.71 1.721 0 3.121 0.968 3.121 2.158-0 1.728-2.808 2.75-4.858 1.787zM20.372 21.436v-0.75c0-0.259-0.21-0.469-0.469-0.469s-0.469 0.21-0.469 0.469v0.75c0 0.259 0.21 0.469 0.469 0.469s0.469-0.21 0.469-0.469zM12.566 21.436v-0.75c0-0.259-0.21-0.469-0.469-0.469s-0.469 0.21-0.469 0.469v0.75c0 0.259 0.21 0.469 0.469 0.469s0.469-0.21 0.469-0.469zM16 22.351c0.53 0 1.034-0.229 1.382-0.63 0.17-0.195 0.15-0.491-0.045-0.661s-0.491-0.15-0.661 0.045c-0.171 0.196-0.417 0.308-0.676 0.308s-0.505-0.112-0.676-0.308c-0.17-0.195-0.466-0.215-0.661-0.045s-0.216 0.466-0.045 0.661c0.349 0.4 0.853 0.63 1.382 0.63z"></path>
</svg>
