<!-- Generated by IcoMoon.io -->
<svg version="1.1" xmlns="http://www.w3.org/2000/svg" width="32" height="32" viewBox="0 0 32 32">
<title>placeholder</title>
<path d="M15.534 0.008c-6.487 0.222-11.844 5.266-12.465 11.72-0.118 1.241-0.065 2.496 0.17 3.711 0.007 0.052 0.033 0.196 0.085 0.425 0.196 0.882 0.49 1.738 0.869 2.561 1.32 3.116 4.201 7.911 10.433 13.079 0.385 0.32 0.875 0.497 1.372 0.497 0.503 0 0.986-0.176 1.372-0.497 6.226-5.168 9.107-9.963 10.433-13.079 0.379-0.823 0.673-1.686 0.869-2.548 0.033-0.144 0.065-0.281 0.085-0.418v0c0.157-0.81 0.235-1.64 0.235-2.463 0-7.323-6.095-13.249-13.458-12.987zM26.555 15.034c0 0.013-0.007 0.026-0.007 0.033-0.007 0.020-0.020 0.118-0.065 0.3-0.163 0.732-0.412 1.45-0.725 2.13-0.007 0.013-0.013 0.020-0.013 0.033-1.215 2.881-3.894 7.33-9.747 12.197-5.854-4.874-8.532-9.322-9.747-12.197-0.007-0.013-0.007-0.020-0.013-0.033-0.314-0.686-0.562-1.398-0.725-2.143-0.033-0.15-0.052-0.242-0.059-0.274 0-0.013-0.007-0.033-0.007-0.046-0.196-1.013-0.242-2.058-0.144-3.090 0.516-5.337 4.945-9.505 10.315-9.695 0.131-0.007 0.255-0.007 0.385-0.007 5.925 0 10.753 4.821 10.753 10.753-0.007 0.679-0.072 1.365-0.203 2.038z"></path>
<path d="M15.998 6.241c-3.796 0-6.892 3.090-6.892 6.892s3.097 6.886 6.892 6.886 6.892-3.090 6.892-6.892-3.097-6.886-6.892-6.886zM15.998 17.778c-2.561 0-4.651-2.084-4.651-4.651 0-2.561 2.084-4.651 4.651-4.651 2.561 0 4.651 2.084 4.651 4.651s-2.091 4.651-4.651 4.651z"></path>
</svg>
