<!-- Generated by IcoMoon.io -->
<svg version="1.1" xmlns="http://www.w3.org/2000/svg" width="32" height="32" viewBox="0 0 32 32">
<title>sale</title>
<path d="M12.361 32c-0.296 0-0.596-0.042-0.895-0.129-1.388-0.405-2.301-1.653-2.27-3.106 0.009-0.419-0.186-0.787-0.535-1.010-0.34-0.218-0.743-0.241-1.105-0.065-1.289 0.627-2.789 0.322-3.733-0.76-0.956-1.095-1.056-2.643-0.249-3.852 0.232-0.347 0.265-0.765 0.090-1.145-0.171-0.372-0.499-0.614-0.9-0.664-1.426-0.176-2.523-1.255-2.73-2.684-0.208-1.435 0.541-2.785 1.864-3.361 0.375-0.163 0.624-0.492 0.683-0.901 0.060-0.413-0.088-0.802-0.405-1.068-1.111-0.93-1.449-2.442-0.842-3.762 0.602-1.308 1.956-2.028 3.369-1.792 0.397 0.066 0.777-0.071 1.044-0.378 0.274-0.315 0.359-0.725 0.233-1.125-0.436-1.389 0.093-2.846 1.316-3.626 1.21-0.772 2.735-0.639 3.797 0.329 0.3 0.274 0.694 0.366 1.082 0.252 0.393-0.115 0.681-0.411 0.789-0.813 0.376-1.399 1.596-2.339 3.037-2.339s2.661 0.94 3.037 2.339c0.108 0.401 0.395 0.697 0.789 0.813 0.387 0.113 0.782 0.021 1.082-0.252 1.061-0.968 2.587-1.1 3.797-0.329 1.223 0.78 1.752 2.237 1.316 3.626-0.126 0.4-0.041 0.81 0.233 1.125 0.266 0.306 0.647 0.444 1.044 0.378 1.414-0.236 2.768 0.484 3.369 1.792 0.607 1.32 0.269 2.832-0.842 3.762-0.317 0.265-0.465 0.655-0.405 1.068 0.059 0.41 0.308 0.738 0.683 0.901 1.323 0.575 2.072 1.926 1.864 3.361-0.207 1.43-1.304 2.508-2.73 2.684-0.401 0.049-0.73 0.291-0.9 0.664-0.174 0.381-0.142 0.798 0.090 1.145 0.807 1.209 0.707 2.757-0.249 3.852-0.944 1.082-2.444 1.387-3.733 0.76-0.363-0.176-0.765-0.153-1.105 0.065-0.349 0.223-0.544 0.591-0.535 1.010 0.030 1.453-0.882 2.702-2.27 3.106-1.379 0.402-2.809-0.156-3.558-1.389-0.213-0.351-0.569-0.552-0.975-0.552s-0.761 0.201-0.975 0.552c-0.587 0.966-1.592 1.518-2.664 1.518zM16 27.929c1.104 0 2.108 0.566 2.684 1.514 0.423 0.696 1.094 0.564 1.29 0.508 0.41-0.12 0.844-0.483 0.83-1.144-0.023-1.115 0.521-2.138 1.456-2.737 0.927-0.593 2.070-0.66 3.059-0.179 0.723 0.352 1.217-0.123 1.351-0.277 0.286-0.328 0.46-0.875 0.092-1.427-0.616-0.924-0.708-2.079-0.244-3.089 0.46-1.002 1.384-1.681 2.474-1.815 0.64-0.079 0.934-0.561 0.995-0.986 0.062-0.429-0.085-0.98-0.683-1.24-1.009-0.439-1.706-1.355-1.864-2.45-0.158-1.098 0.253-2.177 1.101-2.887 0.506-0.423 0.491-0.997 0.309-1.393-0.086-0.187-0.429-0.788-1.223-0.655-1.082 0.181-2.16-0.207-2.882-1.038-0.73-0.839-0.966-1.974-0.632-3.037 0.199-0.634-0.119-1.108-0.483-1.341-0.171-0.109-0.777-0.424-1.373 0.12-0.816 0.744-1.934 1.004-2.991 0.694-1.063-0.311-1.87-1.138-2.159-2.214-0.17-0.633-0.682-0.858-1.105-0.858s-0.935 0.225-1.105 0.858c-0.289 1.075-1.096 1.903-2.159 2.214-1.057 0.309-2.175 0.050-2.991-0.694-0.596-0.544-1.202-0.229-1.373-0.12-0.364 0.232-0.682 0.707-0.483 1.341 0.334 1.063 0.097 2.198-0.633 3.037-0.722 0.83-1.8 1.218-2.882 1.038-0.794-0.132-1.137 0.468-1.223 0.655-0.182 0.396-0.196 0.969 0.309 1.393 0.848 0.71 1.259 1.789 1.101 2.887-0.158 1.095-0.855 2.010-1.864 2.449-0.598 0.26-0.745 0.811-0.683 1.24 0.062 0.425 0.355 0.907 0.995 0.986 1.089 0.134 2.014 0.813 2.474 1.815 0.463 1.010 0.372 2.165-0.245 3.089-0.369 0.552-0.194 1.099 0.092 1.427 0.134 0.154 0.629 0.628 1.351 0.277 0.989-0.481 2.132-0.415 3.059 0.179 0.935 0.599 1.48 1.622 1.456 2.737-0.014 0.661 0.42 1.025 0.83 1.144 0.196 0.057 0.867 0.189 1.29-0.508 0.576-0.948 1.579-1.514 2.684-1.514z"></path>
<path d="M11 22c-0.256 0-0.512-0.098-0.707-0.293-0.391-0.39-0.391-1.024 0-1.414l10-10c0.39-0.391 1.024-0.391 1.414 0s0.391 1.024 0 1.414l-10 10c-0.195 0.195-0.451 0.293-0.707 0.293z"></path>
<path d="M13 13c-1.103 0-2-0.897-2-2s0.897-2 2-2 2 0.897 2 2-0.897 2-2 2zM13 11c0 0.001 0 0.001 0 0.001z"></path>
<path d="M19 23c-1.103 0-2-0.897-2-2s0.897-2 2-2 2 0.897 2 2-0.897 2-2 2zM19 21c0 0.001 0 0.001 0 0.001z"></path>
</svg>
