<!-- Generated by IcoMoon.io -->
<svg version="1.1" xmlns="http://www.w3.org/2000/svg" width="32" height="32" viewBox="0 0 32 32">
<title>scooter</title>
<path d="M28 11h1v1h-1z"></path>
<path d="M30 11h1v1h-1z"></path>
<path d="M30 13h1v1h-1z"></path>
<path d="M29 14v-1h-2v-2c0-0 0-0 0-0 0-0.276-0.224-0.5-0.5-0.5-0 0-0 0-0 0h-6c-0 0-0 0-0 0-0.276 0-0.5 0.224-0.5 0.5 0 0 0 0 0 0v0 1.956c-0.148-0.059-0.32-0.094-0.499-0.094-0.38 0-0.723 0.154-0.972 0.402l0-0c-0.146 0.145-0.346 0.235-0.568 0.236h-0c-0.61 0-1.602-0.001-2.267-0.002h-0.003c-0.001 0-0.002 0-0.003 0-0.598 0-1.138 0.243-1.529 0.636l-0.018 0.018c-0.385 0.384-0.624 0.916-0.624 1.504 0 0.318 0.070 0.62 0.196 0.891l-0.005-0.013c-0.501 0.651-0.803 1.478-0.803 2.376 0 0.244 0.022 0.482 0.065 0.713l-0.004-0.024 0.073 0.401h-3.169c-0.11-0.615-0.172-1.323-0.172-2.046 0-1.535 0.282-3.003 0.798-4.357l-0.026 0.078c0.020-0.052 0.032-0.112 0.032-0.175 0-0 0-0.001 0-0.001v0h2.5c0 0 0 0 0 0 0.276 0 0.5-0.224 0.5-0.5 0-0 0-0 0-0v0-1.5c0-0 0-0 0-0 0-0.276-0.224-0.5-0.5-0.5-0 0-0 0-0 0h-2.968l-0.219-0.027 0.564-1.973h0.623v1h1v-3h-1v1h-1c-0.227 0-0.419 0.152-0.48 0.359l-0.001 0.004-0.71 2.485-2.748-0.344c-0.019-0.002-0.040-0.004-0.062-0.004-0.276 0-0.5 0.224-0.5 0.5v0 3c0 0.276 0.224 0.5 0.5 0.5v0c0.022 0 0.043-0.001 0.064-0.004l-0.003 0 1.772-0.221c-0.305 0.494-0.579 1.063-0.791 1.662l-0.019 0.063h-2.024c-0.233 0-0.429 0.16-0.484 0.375l-0.001 0.003-0.412 1.649c-1.548 0.203-2.778 1.358-3.088 2.851l-0.004 0.023c-0.006 0.030-0.010 0.064-0.010 0.099 0 0.276 0.224 0.5 0.5 0.5 0 0 0 0 0 0h0.671c-0.109 0.298-0.171 0.641-0.171 1 0 1.657 1.343 3 3 3 1.48 0 2.71-1.072 2.956-2.482l0.003-0.018h7.584c0.248 1.428 1.478 2.5 2.958 2.5s2.71-1.072 2.956-2.482l0.003-0.018h1.542c0.22 0 0.406-0.142 0.473-0.338l0.001-0.004 1.5-4.5c0.016-0.047 0.026-0.102 0.026-0.158 0-0.187-0.103-0.35-0.254-0.436l-0.003-0.001-0.114-0.063h1.871c0 0 0 0 0 0 0.276 0 0.5-0.224 0.5-0.5 0-0 0-0 0-0v0-0.5h1v-1h-1v-1.5zM10.5 12h2v0.5h-2zM5.391 17h1.351c-0.065 0.274-0.123 0.614-0.16 0.961l-0.003 0.039h-1.437zM2.188 20.5c0.429-0.892 1.324-1.497 2.362-1.5h1.978c0.002 0.508 0.046 1.004 0.129 1.488l-0.008-0.053 0.261 1.566h-0.009c-0.409-0-0.769-0.208-0.982-0.523l-0.003-0.004c-0.397-0.59-1.061-0.973-1.816-0.973-0.001 0-0.001 0-0.002 0h0zM5 24.5c-1.105-0.001-2-0.897-2-2.001 0-0.368 0.099-0.712 0.272-1.008l-0.005 0.009h0.832c0 0 0.001 0 0.002 0 0.409 0 0.769 0.208 0.981 0.523l0.003 0.004c0.397 0.59 1.063 0.972 1.817 0.973h0.036c-0.231 0.869-1.010 1.499-1.937 1.5h-0zM7.924 22l-0.289-1.73c-0.069-0.395-0.108-0.85-0.108-1.315 0-1.829 0.612-3.515 1.641-4.865l-0.014 0.020 0.117-0.015c-0.364 1.154-0.573 2.481-0.573 3.857 0 1.349 0.202 2.651 0.576 3.878l-0.025-0.094 0.079 0.264zM9.5 13.059l-3 0.375v-1.867l3 0.375zM10.372 22l-0.166-0.552c-0.044-0.149-0.086-0.298-0.124-0.448h3.138l0.182 1zM14.847 14.861l0.018-0.018c0.211-0.213 0.503-0.344 0.826-0.344h0c0.665 0.001 1.659 0.002 2.269 0.002 0.498-0.001 0.948-0.203 1.276-0.528l-0 0c0.068-0.068 0.161-0.109 0.264-0.109s0.197 0.042 0.264 0.109v0l0.089 0.089c0.091 0.090 0.147 0.214 0.147 0.352 0 0.001 0 0.001 0 0.002v-0 0.991c-0.959-0.257-2.061-0.405-3.196-0.406h-0c-0.636 0.001-1.236 0.153-1.767 0.422l0.022-0.010c-0.207 0.104-0.383 0.213-0.549 0.335l0.010-0.007c-0.002-0.025-0.003-0.054-0.003-0.084 0-0.311 0.126-0.592 0.331-0.795l0-0zM18.5 24.5c-0.927-0.001-1.706-0.631-1.934-1.486l-0.003-0.014h3.874c-0.231 0.869-1.010 1.499-1.937 1.5h-0zM22.639 22h-6.189l-0.534-2.938c-0.009-0.049-0.015-0.104-0.015-0.161 0-0.498 0.403-0.901 0.901-0.901 0 0 0 0 0 0h-0c1.631 0.002 3.17 0.399 4.525 1.1l-0.055-0.026 0.454-0.891c-1.432-0.744-3.127-1.181-4.923-1.183h-0.001c-0 0-0 0-0 0-1.050 0-1.901 0.851-1.901 1.901 0 0.12 0.011 0.238 0.033 0.352l-0.002-0.012 0.502 2.758h-1.016l-0.469-2.579c-0.030-0.156-0.047-0.335-0.047-0.519 0-1.603 1.299-2.902 2.902-2.902v0c2.11 0.001 4.092 0.553 5.808 1.52l-0.059-0.031 1.343 0.746zM26 16.5h-3.176c-0.507-0.277-1.109-0.545-1.733-0.766l-0.090-0.028v-4.206h5z"></path>
<path d="M29 15.5h1v1h-1z"></path>
<path d="M25.5 18.5h2v1h-2z"></path>
<path d="M28.5 18.5h1v1h-1z"></path>
<path d="M25.5 20.5h1v1h-1z"></path>
<path d="M27.5 20.5h1v1h-1z"></path>
</svg>
