<!-- Generated by IcoMoon.io -->
<svg version="1.1" xmlns="http://www.w3.org/2000/svg" width="32" height="32" viewBox="0 0 32 32">
<title>search</title>
<path d="M7.907 22.511l-7.58 7.58c-0.216 0.216-0.327 0.503-0.327 0.791s0.111 0.575 0.327 0.791c0.438 0.438 1.15 0.438 1.588 0l7.58-7.58c2.385 2.026 5.469 3.248 8.834 3.248 7.541 0 13.67-6.136 13.67-13.67s-6.129-13.67-13.67-13.67-13.67 6.136-13.67 13.676c0 3.365 1.222 6.449 3.248 8.834zM18.329 2.241c6.306 0 11.428 5.129 11.428 11.428s-5.129 11.428-11.428 11.428-11.428-5.129-11.428-11.428 5.13-11.428 11.428-11.428z"></path>
</svg>
