<!-- Generated by IcoMoon.io -->
<svg version="1.1" xmlns="http://www.w3.org/2000/svg" width="32" height="32" viewBox="0 0 32 32">
<title>stopwatch</title>
<path d="M17 12h-2l0.001 6.414 4.291 4.292 1.414-1.414-3.705-3.706z"></path>
<path d="M30 9.172l-5.172-5.172-1.869 1.869c-1.78-1.025-3.802-1.665-5.961-1.819l0.001-2.051h3.001v-2h-8v2h2.999l-0.001 2.051c-2.157 0.154-4.178 0.794-5.957 1.818l-1.869-1.869-5.172 5.172 1.869 1.869c-1.182 2.053-1.869 4.425-1.869 6.959 0 7.72 6.28 14 14 14s14-6.28 14-14c0-2.534-0.687-4.906-1.869-6.959 0 0 1.869-1.869 1.869-1.869zM16 30c-6.617 0-12-5.383-12-12s5.383-12 12-12 12 5.383 12 12-5.383 12-12 12z"></path>
</svg>
