<!-- Generated by IcoMoon.io -->
<svg version="1.1" xmlns="http://www.w3.org/2000/svg" width="32" height="32" viewBox="0 0 32 32">
<title>vespa</title>
<path d="M5.618 27.298c0 0.517-0.419 0.936-0.936 0.936s-0.936-0.419-0.936-0.936c0-0.517 0.419-0.936 0.936-0.936s0.936 0.419 0.936 0.936z"></path>
<path d="M23.596 22.616h-1.873c-0.517 0-0.936 0.419-0.936 0.936s0.419 0.936 0.936 0.936h1.873c0.517 0 0.936-0.419 0.936-0.936s-0.419-0.936-0.936-0.936z"></path>
<path d="M27.964 19.345c0.18-0.52 0.314-1.127 0.314-1.785 0-1.841-1.076-3.307-1.119-3.365-0.008-0.010-0.754-1.046-0.754-2.253 0-1.001 0.51-1.922 0.696-2.225 0.392-0.339 0.765-0.654 1.125-0.958 1.826-1.541 3.773-3.054 3.773-5.282 0-1.939-1.432-3.458-3.259-3.458-0.904 0-1.7 0.368-2.323 1.069-0.623-0.701-1.418-1.069-2.323-1.069-1.828 0-3.259 1.519-3.259 3.458 0 2.071 1.643 3.467 3.917 5.401 0.151 0.128 0.304 0.259 0.46 0.392-0.312 0.629-0.68 1.597-0.68 2.673 0 1.841 1.076 3.307 1.119 3.365 0.008 0.010 0.754 1.046 0.754 2.253 0 0.497-0.128 0.966-0.274 1.339-0.211-0.019-0.427-0.028-0.648-0.028h-0.014v-0.936c0-1.549-1.26-2.809-2.809-2.809h-4.682c-1.549 0-2.809 1.26-2.809 2.809v1.873c0 0.241 0.097 0.485 0.274 0.662 1.612 1.612 1.694 4.181 0.25 5.892h-2.585v-0.936c0-0 0-0 0-0v-9.363c0-1.053-0.35-2.026-0.939-2.809h2.063c0.517 0 0.936-0.419 0.936-0.936s-0.419-0.936-0.936-0.936h-2.996v-0.936c0-1.549-1.26-2.809-2.809-2.809h-1.873c-0.517 0-0.936 0.419-0.936 0.936v3.745c0 0.517 0.419 0.936 0.936 0.936h0.611l-1.732 5.714c-3.082 0.533-5.433 3.226-5.433 6.458v1.873c0 1.624 0.823 3.108 2.2 3.971 2.565 1.606 6.415 0.456 7.075-3.034 0.293 0 9.027 0 9.733 0 0.435 2.134 2.327 3.745 4.588 3.745s4.153-1.611 4.588-3.745h0.973c1.827 0 3.169-1.716 2.725-3.49-0.581-2.322-1.714-4.467-3.918-5.399zM7.491 9.507h0.936c0.516 0 0.936 0.42 0.936 0.936v0.936c-0.678 0-1.195 0-1.873 0v-1.873zM3.194 29.681c-0.827-0.518-1.321-1.409-1.321-2.383 0-1.549 1.26-2.809 2.809-2.809 0 0 0 0 0 0s0 0 0 0c1.549 0 2.809 1.26 2.809 2.809 0 2.567-2.667 3.404-4.297 2.383zM11.236 26.362h-1.967c-0.435-2.134-2.327-3.745-4.588-3.745-0 0-0 0-0 0s-0 0-0 0c-0.81 0-1.573 0.207-2.238 0.571 0.795-1.455 2.34-2.444 4.111-2.444 2.582 0 4.682 2.1 4.682 4.682v0.936zM11.236 20.843c-1.004-1.025-2.341-1.724-3.834-1.918l1.695-5.592c1.226 0.301 2.139 1.41 2.139 2.728v4.781zM25.966 7.451c-2.14-1.82-3.257-2.823-3.257-3.974 0-0.788 0.476-1.585 1.387-1.585 1.005 0 1.394 1.239 1.421 1.329 0.109 0.41 0.477 0.696 0.902 0.696s0.793-0.286 0.902-0.696c0.027-0.090 0.416-1.329 1.421-1.329 0.91 0 1.387 0.797 1.387 1.585 0 1.265-1.33 2.35-3.108 3.851-0.196 0.166-0.396 0.334-0.601 0.508-0.154-0.131-0.304-0.259-0.453-0.386zM17.042 17.935c0-0.516 0.42-0.936 0.936-0.936h4.682c0.516 0 0.936 0.42 0.936 0.936v0.936h-6.555v-0.936zM23.596 30.107c-1.221 0-2.261-0.783-2.648-1.873h5.296c-0.387 1.090-1.427 1.873-2.648 1.873zM29.157 26.362h-11.232c0.887-1.761 0.887-3.857-0-5.618h0.054c0.262 0 7.197 0 7.505 0 2.686 0 3.93 1.848 4.582 4.455 0.148 0.591-0.299 1.163-0.908 1.163z"></path>
</svg>
